P2
# SPDX-License-Identifier: CC0-1.0
# 🏳️‍⚧️
12 12
2
2 2 2 2 2 2 2 2 2 2 2 2
2 1 1 1 1 1 1 1 1 1 1 2
2 1 2 2 2 1 1 2 2 1 1 2
2 1 2 2 1 1 1 1 2 1 1 2
2 1 2 1 2 2 2 1 1 1 1 2
2 1 1 1 2 1 2 1 1 1 1 2
2 1 1 1 1 2 1 1 1 1 1 2
2 1 1 1 2 2 2 1 1 1 1 2
2 1 1 1 1 2 1 1 1 1 1 2
2 2 2 2 2 2 2 2 2 2 2 2
2 0 0 0 0 0 0 0 0 0 0 0
2 0 0 0 0 0 0 0 0 0 0 0

